<?xml version="1.0" encoding="utf-8"?>
<!-- Generator: Adobe Illustrator 16.0.0, SVG Export Plug-In . SVG Version: 6.00 Build 0)  -->
<!DOCTYPE svg PUBLIC "-//W3C//DTD SVG 1.1//EN" "http://www.w3.org/Graphics/SVG/1.1/DTD/svg11.dtd">
<svg version="1.1" id="Layer_1" xmlns="http://www.w3.org/2000/svg" xmlns:xlink="http://www.w3.org/1999/xlink" x="0px" y="0px"
	 width="2736px" height="864px" viewBox="0 0 2736 864" enable-background="new 0 0 2736 864" xml:space="preserve">
<g id="Layer_2" display="none">
	<rect y="432" display="inline" fill="#19191A" width="2736" height="432"/>
</g>
<g id="_x30_1" display="none">
	<g display="inline">
		<path fill="#7E8083" d="M916.385,218.505c-0.49-2.059-0.855-4.153-1.468-6.174c-1.772-5.848-5.001-10.726-10.024-14.306
			c-5.271-3.758-11.187-5.224-17.604-4.881c-2.804,0.151-5.55,0.602-8.252,1.324c-6.22,1.658-11.448,4.845-15.37,10.026
			c-3.25,4.285-4.994,9.135-5.359,14.471c-0.195,2.845,0,5.688,0.5,8.51c0.689,3.923,1.817,7.705,3.875,11.137
			c5.086,8.497,12.69,12.826,22.518,13.32c3.084,0.152,6.137-0.267,9.156-0.936c5.344-1.181,10.133-3.451,14.104-7.279
			c4.525-4.361,6.958-9.688,7.383-16.009c-0.165,0.013-0.271,0.008-0.376,0.032c-2.364,0.414-4.729,0.842-7.097,1.248
			c-0.364,0.062-0.383,0.329-0.432,0.583c-1.074,5.795-4.326,9.995-9.502,12.702c-3.916,2.046-8.158,2.812-12.553,2.75
			c-5.398-0.08-10.021-1.975-13.701-5.978c-2.795-3.041-4.401-6.701-5.414-10.656c-0.174-0.688-0.166-0.695,0.539-0.814
			c2.35-0.405,4.693-0.807,7.043-1.216c4.779-0.843,9.56-1.699,14.338-2.541c3.33-0.589,6.66-1.164,9.99-1.748
			c3.569-0.629,7.146-1.263,10.717-1.895c2.207-0.389,4.41-0.784,6.611-1.177C916.287,218.947,916.465,218.854,916.385,218.505z
			 M903.875,215.189c-5.287,0.927-10.579,1.859-15.865,2.786c-5.164,0.905-10.326,1.806-15.492,2.71
			c-2.028,0.361-4.057,0.736-6.084,1.106c-0.658,0.116-0.692,0.08-0.729-0.584c-0.173-3.192,0.215-6.299,1.555-9.224
			c2.057-4.481,5.4-7.687,9.867-9.727c3.905-1.783,8.023-2.559,12.309-2.403c7.937,0.294,15.49,5.087,17.896,14.034
			c0.049,0.188,0.08,0.379,0.14,0.656C906.216,214.771,905.048,214.984,903.875,215.189z"/>
		<path fill="#7E8083" d="M1030.854,228.942c-0.439,0.071-0.569,0.282-0.649,0.683c-1.2,6.117-4.712,10.444-10.32,13.04
			c-4.53,2.099-9.336,2.781-14.289,2.166c-4.327-0.539-8.006-2.434-11.002-5.622c-2.646-2.821-4.243-6.209-5.305-9.883
			c-0.146-0.508-0.271-1.021-0.429-1.614c16.629-2.934,33.186-5.853,49.787-8.783c-0.018-0.245-0.018-0.406-0.045-0.561
			c-0.477-2.773-1.096-5.51-2.13-8.14c-1.846-4.686-4.638-8.658-8.663-11.716c-5.412-4.109-11.561-5.729-18.291-5.363
			c-3.166,0.169-6.255,0.718-9.277,1.623c-5.821,1.748-10.703,4.882-14.363,9.79c-4.096,5.501-5.736,11.716-5.32,18.527
			c0.185,3.107,0.737,6.139,1.635,9.112c1.637,5.421,4.477,10.066,8.893,13.681c4.869,3.991,10.496,5.929,16.746,6.037
			c1.947,0.036,3.908-0.157,5.85-0.406c3.529-0.45,6.954-1.369,10.137-2.997c8.162-4.176,13.188-10.618,14.221-19.9
			c0.031-0.289,0.031-0.584,0.047-0.896c-0.219,0.013-0.362,0.004-0.5,0.031C1035.338,228.149,1033.095,228.563,1030.854,228.942z
			 M988.658,221.805c-0.499,0.093-0.661-0.049-0.691-0.544c-0.339-5.073,0.986-9.625,4.245-13.565
			c3.254-3.928,7.537-6.1,12.433-7.183c3.679-0.814,7.393-1.047,11.074-0.102c7.244,1.854,11.881,6.442,13.937,13.632
			c0.021,0.084,0.028,0.174,0.045,0.263c0.004,0.053,0,0.104,0,0.245c-1.204,0.214-2.376,0.428-3.545,0.633
			c-4.802,0.842-9.599,1.685-14.4,2.523c-5.271,0.923-10.537,1.841-15.807,2.768C993.518,220.904,991.082,221.346,988.658,221.805z"
			/>
		<path fill="#7E8083" d="M1142.487,249.908h-3.397c-1.818,0-3.637-0.014-5.456,0.009c-0.415,0.005-0.69-0.13-0.954-0.446
			c-4.813-5.732-9.638-11.457-14.467-17.181c-3.388-4.021-6.779-8.039-10.16-12.068c-0.285-0.334-0.445-0.37-0.799-0.084
			c-3.517,2.901-7.051,5.791-10.596,8.67c-0.29,0.237-0.4,0.482-0.4,0.857c0.014,6.509,0.008,13.018,0.008,19.525
			c0,0.718,0,0.718-0.734,0.718c-1.891,0-3.78-0.022-5.67,0.009c-0.536,0.009-0.696-0.125-0.696-0.678
			c0.019-10.396,0.013-20.793,0.013-31.188v-63.335c0-0.798,0-0.798,0.821-0.798h5.563c0.703,0,0.703,0,0.703,0.691v66.125
			c0.242-0.164,0.385-0.244,0.512-0.352c4.844-3.905,9.686-7.811,14.521-11.72c5.396-4.36,10.785-8.72,16.188-13.067
			c0.191-0.156,0.474-0.286,0.709-0.286c3.229-0.017,6.455-0.012,9.683-0.012c0.072,0,0.14,0.018,0.372,0.044
			c-8.288,6.696-16.482,13.313-24.748,19.985C1123.152,226.843,1132.771,238.322,1142.487,249.908z"/>
		<path fill="#7E8083" d="M976.617,194.786c-0.348,0.779-0.669,1.501-0.999,2.228c-3.728,8.243-7.448,16.486-11.185,24.726
			c-4.184,9.228-8.377,18.451-12.556,27.684c-0.166,0.362-0.36,0.496-0.762,0.496c-2.068-0.023-4.138-0.026-6.201,0
			c-0.459,0.009-0.656-0.161-0.835-0.553c-3.619-8.055-7.252-16.106-10.887-24.158c-4.502-9.985-9.004-19.968-13.502-29.949
			c-0.06-0.129-0.103-0.258-0.181-0.459c0.222-0.018,0.386-0.04,0.554-0.04c2.336-0.005,4.674,0.004,7.004-0.01
			c0.396-0.004,0.599,0.121,0.759,0.496c5.147,12.067,10.308,24.136,15.469,36.199c1.49,3.486,2.983,6.973,4.478,10.458
			c0.088,0.206,0.184,0.406,0.33,0.735c0.142-0.268,0.23-0.411,0.299-0.562c3.344-7.752,6.684-15.5,10.024-23.248
			c3.375-7.833,6.759-15.662,10.13-23.499c0.178-0.423,0.396-0.588,0.864-0.584c2.21,0.027,4.422,0.009,6.636,0.014
			C976.211,194.759,976.368,194.771,976.617,194.786z"/>
		<path fill="#7E8083" d="M845.922,154.578c-0.01,15.777-0.01,31.559-0.01,47.335v47.233c0,0.762,0,0.762-0.748,0.762
			c-1.873,0-3.746-0.014-5.618,0.009c-0.45,0.005-0.623-0.151-0.58-0.588c0.015-0.122,0.005-0.25,0.005-0.375v-94.087
			c0-1.075-0.048-0.945,0.955-0.95c1.782-0.004,3.565,0.022,5.348-0.013C845.805,153.896,845.922,154.074,845.922,154.578z"/>
		<path fill="#7E8083" d="M1081.447,201.294c0,0.031-0.026,0.062-0.049,0.125c-0.922-0.219-1.836-0.486-2.772-0.651
			c-4.619-0.821-9.026-0.277-13.035,2.295c-3.071,1.975-5.038,4.877-6.554,8.128c-0.888,1.902-1.302,3.842-1.288,5.977
			c0.075,10.642,0.035,21.288,0.035,31.929c0,0.813-0.004,0.813-0.817,0.813c-1.853,0-3.707-0.022-5.563,0.014
			c-0.561,0.009-0.678-0.178-0.678-0.705c0.015-15.117,0.015-30.233,0.015-45.352c0-2.71,0.009-5.42-0.009-8.13
			c-0.006-0.475,0.105-0.651,0.619-0.643c1.942,0.031,3.887,0.026,5.832,0c0.468-0.005,0.615,0.128,0.608,0.603
			c-0.021,2.567-0.013,5.135-0.009,7.703c0,0.196,0.027,0.397,0.046,0.598c0.043,0.009,0.093,0.017,0.138,0.027
			c0.099-0.178,0.196-0.357,0.284-0.535c2.358-4.664,5.886-8.021,10.937-9.593c4.029-1.253,8.007-0.937,11.908,0.598
			c0.149,0.062,0.349,0.285,0.349,0.437C1081.461,197.049,1081.453,199.171,1081.447,201.294z"/>
	</g>
	<g display="inline">
		<path fill="#11BDCB" d="M783.841,154.061c-3.202,0-5.563,0.96-7.308,2.32c-4.383,3.438-4.846,9.475-4.846,9.475v84.993
			c1.885,0,3.485-0.233,4.846-0.66c9.291-2.835,7.308-13.961,7.308-13.961V154.061z"/>
		<path fill="#11BDCB" d="M819.346,237.61L799,225.693l-4.645-2.907c-0.058-0.239-0.063-0.629,0.266-1.072l3.631-2.259
			l21.094-11.563c0,0,6.729-3.359,4.936-11.776c0,0-0.561-1.566-2.691-1.117c0,0-0.009,0-0.021,0.005l-30.928,17.259
			c0,0-0.072,0.05-0.171,0.125c-0.645,0.454-1.044,1.033-1.288,1.616c0,0.001-0.002,0.003-0.003,0.004
			c-0.073,0.174-0.136,0.348-0.183,0.519c-0.021,0.071-0.037,0.145-0.055,0.219c-0.219,0.963-0.102,1.769-0.102,1.769h0.002
			l0.021,10.552l-0.022,1.799c0.009,0.081,0.022,0.152,0.031,0.232v0.067l0.009-0.019c0.368,3.392,3.223,5.101,3.223,5.101
			l28.029,15.585c1.473,1.037,2.414,1.068,2.988,0.826c0.619-0.26,0.825-0.826,0.825-0.826
			C827.421,242.765,819.346,237.61,819.346,237.61z"/>
	</g>
</g>
<g id="_x30_2" display="none">
	<g display="inline">
		<path fill="#E6E7E8" d="M916.385,643.506c-0.49-2.06-0.855-4.154-1.468-6.175c-1.772-5.849-5.001-10.726-10.024-14.306
			c-5.271-3.758-11.187-5.226-17.604-4.881c-2.804,0.149-5.55,0.602-8.252,1.323c-6.22,1.658-11.448,4.845-15.37,10.025
			c-3.25,4.285-4.994,9.135-5.359,14.471c-0.195,2.845,0,5.688,0.5,8.511c0.689,3.924,1.817,7.705,3.875,11.137
			c5.086,8.497,12.69,12.826,22.518,13.32c3.084,0.151,6.137-0.268,9.156-0.937c5.344-1.181,10.133-3.451,14.104-7.279
			c4.525-4.36,6.958-9.688,7.383-16.01c-0.165,0.015-0.271,0.009-0.376,0.032c-2.364,0.413-4.729,0.842-7.097,1.248
			c-0.364,0.062-0.383,0.328-0.432,0.583c-1.074,5.796-4.326,9.995-9.502,12.702c-3.916,2.046-8.158,2.812-12.553,2.75
			c-5.398-0.079-10.021-1.977-13.701-5.979c-2.795-3.041-4.401-6.701-5.414-10.656c-0.174-0.688-0.166-0.694,0.539-0.814
			c2.35-0.405,4.693-0.807,7.043-1.217c4.779-0.844,9.56-1.698,14.338-2.541c3.33-0.59,6.66-1.163,9.99-1.747
			c3.569-0.63,7.146-1.263,10.717-1.896c2.207-0.389,4.41-0.785,6.611-1.178C916.287,643.947,916.465,643.854,916.385,643.506z
			 M903.875,640.189c-5.287,0.927-10.579,1.858-15.865,2.785c-5.164,0.905-10.326,1.807-15.492,2.711
			c-2.028,0.36-4.057,0.735-6.084,1.105c-0.658,0.116-0.692,0.079-0.729-0.585c-0.173-3.19,0.215-6.299,1.555-9.224
			c2.057-4.48,5.4-7.688,9.867-9.728c3.905-1.783,8.023-2.56,12.309-2.403c7.937,0.295,15.49,5.088,17.896,14.033
			c0.049,0.188,0.08,0.381,0.14,0.656C906.216,639.771,905.048,639.984,903.875,640.189z"/>
		<path fill="#E6E7E8" d="M1030.854,653.941c-0.439,0.071-0.569,0.281-0.649,0.684c-1.2,6.117-4.712,10.443-10.32,13.039
			c-4.53,2.1-9.336,2.781-14.289,2.166c-4.327-0.539-8.006-2.434-11.002-5.621c-2.646-2.82-4.243-6.209-5.305-9.883
			c-0.146-0.508-0.271-1.021-0.429-1.614c16.629-2.934,33.186-5.853,49.787-8.782c-0.018-0.246-0.018-0.406-0.045-0.562
			c-0.477-2.772-1.096-5.511-2.13-8.14c-1.846-4.688-4.638-8.658-8.663-11.718c-5.412-4.109-11.561-5.729-18.291-5.362
			c-3.166,0.17-6.255,0.719-9.277,1.623c-5.821,1.748-10.703,4.882-14.363,9.789c-4.096,5.502-5.736,11.717-5.32,18.527
			c0.185,3.106,0.737,6.139,1.635,9.112c1.637,5.422,4.477,10.065,8.893,13.682c4.869,3.99,10.496,5.929,16.746,6.037
			c1.947,0.035,3.908-0.157,5.85-0.406c3.529-0.45,6.954-1.368,10.137-2.997c8.162-4.177,13.188-10.617,14.221-19.898
			c0.031-0.289,0.031-0.584,0.047-0.896c-0.219,0.014-0.362,0.004-0.5,0.031C1035.338,653.148,1033.095,653.563,1030.854,653.941z
			 M988.658,646.805c-0.499,0.094-0.661-0.049-0.691-0.543c-0.339-5.074,0.986-9.625,4.245-13.565
			c3.254-3.929,7.537-6.101,12.433-7.183c3.679-0.815,7.393-1.048,11.074-0.103c7.244,1.854,11.881,6.442,13.937,13.632
			c0.021,0.085,0.028,0.175,0.045,0.264c0.004,0.053,0,0.104,0,0.245c-1.204,0.214-2.376,0.429-3.545,0.634
			c-4.802,0.842-9.599,1.686-14.4,2.523c-5.271,0.922-10.537,1.84-15.807,2.768C993.518,645.904,991.082,646.346,988.658,646.805z"
			/>
		<path fill="#E6E7E8" d="M1142.487,674.908h-3.397c-1.818,0-3.637-0.014-5.456,0.01c-0.415,0.004-0.69-0.131-0.954-0.445
			c-4.813-5.733-9.638-11.457-14.467-17.182c-3.388-4.021-6.779-8.039-10.16-12.068c-0.285-0.334-0.445-0.369-0.799-0.084
			c-3.517,2.9-7.051,5.79-10.596,8.67c-0.29,0.236-0.4,0.481-0.4,0.856c0.014,6.509,0.008,13.019,0.008,19.524
			c0,0.719,0,0.719-0.734,0.719c-1.891,0-3.78-0.021-5.67,0.01c-0.536,0.009-0.696-0.125-0.696-0.678
			c0.019-10.396,0.013-20.793,0.013-31.189v-63.334c0-0.799,0-0.799,0.821-0.799h5.563c0.703,0,0.703,0,0.703,0.691v66.125
			c0.242-0.164,0.385-0.244,0.512-0.353c4.844-3.905,9.686-7.811,14.521-11.72c5.396-4.359,10.785-8.72,16.188-13.066
			c0.191-0.156,0.474-0.285,0.709-0.285c3.229-0.019,6.455-0.014,9.683-0.014c0.072,0,0.14,0.02,0.372,0.044
			c-8.288,6.696-16.482,13.313-24.748,19.985C1123.152,651.843,1132.771,663.322,1142.487,674.908z"/>
		<path fill="#E6E7E8" d="M976.617,619.785c-0.348,0.779-0.669,1.502-0.999,2.229c-3.728,8.243-7.448,16.486-11.185,24.726
			c-4.184,9.228-8.377,18.45-12.556,27.684c-0.166,0.361-0.36,0.496-0.762,0.496c-2.068-0.022-4.138-0.026-6.201,0
			c-0.459,0.009-0.656-0.161-0.835-0.554c-3.619-8.057-7.252-16.106-10.887-24.157c-4.502-9.986-9.004-19.969-13.502-29.949
			c-0.06-0.129-0.103-0.259-0.181-0.459c0.222-0.018,0.386-0.04,0.554-0.04c2.336-0.005,4.674,0.004,7.004-0.01
			c0.396-0.005,0.599,0.12,0.759,0.495c5.147,12.067,10.308,24.137,15.469,36.198c1.49,3.486,2.983,6.974,4.478,10.459
			c0.088,0.205,0.184,0.406,0.33,0.735c0.142-0.269,0.23-0.411,0.299-0.562c3.344-7.753,6.684-15.501,10.024-23.248
			c3.375-7.834,6.759-15.662,10.13-23.499c0.178-0.423,0.396-0.589,0.864-0.585c2.21,0.027,4.422,0.01,6.636,0.015
			C976.211,619.759,976.368,619.771,976.617,619.785z"/>
		<path fill="#E6E7E8" d="M845.922,579.578c-0.01,15.775-0.01,31.559-0.01,47.335v47.233c0,0.762,0,0.762-0.748,0.762
			c-1.873,0-3.746-0.014-5.618,0.01c-0.45,0.004-0.623-0.15-0.58-0.589c0.015-0.122,0.005-0.251,0.005-0.374v-94.088
			c0-1.074-0.048-0.944,0.955-0.949c1.782-0.004,3.565,0.021,5.348-0.014C845.805,578.896,845.922,579.074,845.922,579.578z"/>
		<path fill="#E6E7E8" d="M1081.447,626.294c0,0.03-0.026,0.062-0.049,0.125c-0.922-0.219-1.836-0.485-2.772-0.651
			c-4.619-0.819-9.026-0.275-13.035,2.297c-3.071,1.975-5.038,4.877-6.554,8.127c-0.888,1.902-1.302,3.843-1.288,5.978
			c0.075,10.644,0.035,21.288,0.035,31.929c0,0.813-0.004,0.813-0.817,0.813c-1.853,0-3.707-0.021-5.563,0.014
			c-0.561,0.01-0.678-0.178-0.678-0.705c0.015-15.115,0.015-30.234,0.015-45.352c0-2.71,0.009-5.42-0.009-8.131
			c-0.006-0.474,0.105-0.65,0.619-0.643c1.942,0.03,3.887,0.026,5.832,0c0.468-0.005,0.615,0.128,0.608,0.603
			c-0.021,2.567-0.013,5.136-0.009,7.702c0,0.196,0.027,0.397,0.046,0.599c0.043,0.009,0.093,0.017,0.138,0.026
			c0.099-0.179,0.196-0.357,0.284-0.535c2.358-4.663,5.886-8.021,10.937-9.594c4.029-1.252,8.007-0.937,11.908,0.599
			c0.149,0.062,0.349,0.284,0.349,0.437C1081.461,622.049,1081.453,624.172,1081.447,626.294z"/>
	</g>
	<g display="inline">
		<path fill="#11BDCB" d="M783.841,579.061c-3.202,0-5.563,0.961-7.308,2.32c-4.383,3.438-4.846,9.475-4.846,9.475v84.994
			c1.885,0,3.485-0.233,4.846-0.66c9.291-2.836,7.308-13.961,7.308-13.961V579.061z"/>
		<path fill="#11BDCB" d="M819.346,662.609L799,650.693l-4.645-2.906c-0.058-0.24-0.063-0.63,0.266-1.072l3.631-2.26l21.094-11.563
			c0,0,6.729-3.359,4.936-11.776c0,0-0.561-1.565-2.691-1.117c0,0-0.009,0-0.021,0.005l-30.928,17.259c0,0-0.072,0.05-0.171,0.125
			c-0.645,0.454-1.044,1.033-1.288,1.616c0,0.002-0.002,0.003-0.003,0.004c-0.073,0.176-0.136,0.35-0.183,0.521
			c-0.021,0.071-0.037,0.145-0.055,0.219c-0.219,0.964-0.102,1.771-0.102,1.771h0.002l0.021,10.552l-0.022,1.799
			c0.009,0.081,0.022,0.151,0.031,0.233v0.066l0.009-0.02c0.368,3.394,3.223,5.103,3.223,5.103l28.029,15.585
			c1.473,1.036,2.414,1.068,2.988,0.825c0.619-0.26,0.825-0.825,0.825-0.825C827.421,667.766,819.346,662.609,819.346,662.609z"/>
	</g>
</g>
<g id="_x30_3" display="none">
	<g display="inline">
		<path fill="#7E8083" d="M1786.385,218.505c-0.49-2.059-0.855-4.153-1.468-6.174c-1.772-5.848-5.001-10.726-10.024-14.306
			c-5.271-3.758-11.187-5.224-17.604-4.881c-2.804,0.151-5.549,0.602-8.252,1.324c-6.22,1.658-11.448,4.845-15.37,10.026
			c-3.25,4.285-4.994,9.135-5.359,14.471c-0.195,2.845,0,5.688,0.5,8.51c0.689,3.923,1.817,7.705,3.875,11.137
			c5.086,8.497,12.69,12.826,22.518,13.32c3.084,0.152,6.137-0.267,9.156-0.936c5.344-1.181,10.133-3.451,14.104-7.279
			c4.525-4.361,6.958-9.688,7.383-16.009c-0.165,0.013-0.271,0.008-0.376,0.032c-2.364,0.414-4.729,0.842-7.097,1.248
			c-0.364,0.062-0.383,0.329-0.432,0.583c-1.074,5.795-4.325,9.995-9.502,12.702c-3.916,2.046-8.157,2.812-12.553,2.75
			c-5.397-0.08-10.021-1.975-13.701-5.978c-2.795-3.041-4.401-6.701-5.414-10.656c-0.175-0.688-0.166-0.695,0.539-0.814
			c2.35-0.405,4.693-0.807,7.043-1.216c4.779-0.843,9.56-1.699,14.338-2.541c3.33-0.589,6.66-1.164,9.989-1.748
			c3.57-0.629,7.146-1.263,10.718-1.895c2.207-0.389,4.41-0.784,6.611-1.177C1786.287,218.947,1786.465,218.854,1786.385,218.505z
			 M1773.875,215.189c-5.287,0.927-10.579,1.859-15.865,2.786c-5.164,0.905-10.326,1.806-15.492,2.71
			c-2.028,0.361-4.057,0.736-6.084,1.106c-0.657,0.116-0.692,0.08-0.729-0.584c-0.173-3.192,0.215-6.299,1.555-9.224
			c2.058-4.481,5.4-7.687,9.867-9.727c3.905-1.783,8.024-2.559,12.309-2.403c7.937,0.294,15.49,5.087,17.896,14.034
			c0.049,0.188,0.08,0.379,0.14,0.656C1776.216,214.771,1775.048,214.984,1773.875,215.189z"/>
		<path fill="#7E8083" d="M1900.854,228.942c-0.439,0.071-0.569,0.282-0.649,0.683c-1.2,6.117-4.712,10.444-10.32,13.04
			c-4.53,2.099-9.336,2.781-14.288,2.166c-4.328-0.539-8.007-2.434-11.002-5.622c-2.646-2.821-4.244-6.209-5.306-9.883
			c-0.146-0.508-0.271-1.021-0.428-1.614c16.628-2.934,33.185-5.853,49.786-8.783c-0.018-0.245-0.018-0.406-0.045-0.561
			c-0.477-2.773-1.096-5.51-2.129-8.14c-1.847-4.686-4.639-8.658-8.664-11.716c-5.412-4.109-11.561-5.729-18.291-5.363
			c-3.166,0.169-6.254,0.718-9.277,1.623c-5.821,1.748-10.703,4.882-14.363,9.79c-4.096,5.501-5.736,11.716-5.32,18.527
			c0.185,3.107,0.737,6.139,1.635,9.112c1.637,5.421,4.477,10.066,8.893,13.681c4.869,3.991,10.496,5.929,16.746,6.037
			c1.947,0.036,3.908-0.157,5.849-0.406c3.53-0.45,6.955-1.369,10.138-2.997c8.162-4.176,13.188-10.618,14.221-19.9
			c0.031-0.289,0.031-0.584,0.047-0.896c-0.219,0.013-0.362,0.004-0.5,0.031C1905.338,228.149,1903.095,228.563,1900.854,228.942z
			 M1858.658,221.805c-0.499,0.093-0.661-0.049-0.691-0.544c-0.339-5.073,0.986-9.625,4.245-13.565
			c3.254-3.928,7.537-6.1,12.433-7.183c3.678-0.814,7.393-1.047,11.074-0.102c7.244,1.854,11.881,6.442,13.936,13.632
			c0.022,0.084,0.029,0.174,0.046,0.263c0.004,0.053,0,0.104,0,0.245c-1.204,0.214-2.376,0.428-3.546,0.633
			c-4.801,0.842-9.598,1.685-14.399,2.523c-5.271,0.923-10.537,1.841-15.808,2.768
			C1863.518,220.904,1861.082,221.346,1858.658,221.805z"/>
		<path fill="#7E8083" d="M2012.487,249.908h-3.397c-1.818,0-3.637-0.014-5.456,0.009c-0.415,0.005-0.69-0.13-0.954-0.446
			c-4.813-5.732-9.638-11.457-14.467-17.181c-3.388-4.021-6.779-8.039-10.16-12.068c-0.285-0.334-0.445-0.37-0.799-0.084
			c-3.517,2.901-7.051,5.791-10.596,8.67c-0.29,0.237-0.4,0.482-0.4,0.857c0.014,6.509,0.008,13.018,0.008,19.525
			c0,0.718,0,0.718-0.734,0.718c-1.891,0-3.78-0.022-5.67,0.009c-0.536,0.009-0.696-0.125-0.696-0.678
			c0.019-10.396,0.013-20.793,0.013-31.188v-63.335c0-0.798,0-0.798,0.821-0.798h5.563c0.703,0,0.703,0,0.703,0.691v66.125
			c0.242-0.164,0.385-0.244,0.512-0.352c4.844-3.905,9.686-7.811,14.521-11.72c5.396-4.36,10.785-8.72,16.188-13.067
			c0.191-0.156,0.474-0.286,0.709-0.286c3.229-0.017,6.455-0.012,9.683-0.012c0.072,0,0.14,0.018,0.372,0.044
			c-8.288,6.696-16.482,13.313-24.748,19.985C1993.152,226.843,2002.771,238.322,2012.487,249.908z"/>
		<path fill="#7E8083" d="M1846.617,194.786c-0.348,0.779-0.669,1.501-0.999,2.228c-3.728,8.243-7.448,16.486-11.186,24.726
			c-4.183,9.228-8.377,18.451-12.555,27.684c-0.166,0.362-0.36,0.496-0.763,0.496c-2.067-0.023-4.137-0.026-6.2,0
			c-0.459,0.009-0.656-0.161-0.835-0.553c-3.619-8.055-7.252-16.106-10.887-24.158c-4.502-9.985-9.004-19.968-13.502-29.949
			c-0.06-0.129-0.103-0.258-0.181-0.459c0.222-0.018,0.386-0.04,0.554-0.04c2.336-0.005,4.674,0.004,7.004-0.01
			c0.396-0.004,0.599,0.121,0.759,0.496c5.147,12.067,10.308,24.136,15.469,36.199c1.49,3.486,2.983,6.973,4.478,10.458
			c0.088,0.206,0.184,0.406,0.33,0.735c0.142-0.268,0.23-0.411,0.299-0.562c3.344-7.752,6.684-15.5,10.024-23.248
			c3.375-7.833,6.759-15.662,10.129-23.499c0.179-0.423,0.396-0.588,0.865-0.584c2.21,0.027,4.422,0.009,6.635,0.014
			C1846.211,194.759,1846.368,194.771,1846.617,194.786z"/>
		<path fill="#7E8083" d="M1715.922,154.578c-0.01,15.777-0.01,31.559-0.01,47.335v47.233c0,0.762,0,0.762-0.748,0.762
			c-1.873,0-3.746-0.014-5.618,0.009c-0.45,0.005-0.623-0.151-0.58-0.588c0.015-0.122,0.005-0.25,0.005-0.375v-94.087
			c0-1.075-0.048-0.945,0.955-0.95c1.782-0.004,3.564,0.022,5.348-0.013C1715.805,153.896,1715.922,154.074,1715.922,154.578z"/>
		<path fill="#7E8083" d="M1951.447,201.294c0,0.031-0.026,0.062-0.049,0.125c-0.922-0.219-1.836-0.486-2.772-0.651
			c-4.619-0.821-9.026-0.277-13.035,2.295c-3.071,1.975-5.038,4.877-6.554,8.128c-0.888,1.902-1.302,3.842-1.288,5.977
			c0.075,10.642,0.035,21.288,0.035,31.929c0,0.813-0.004,0.813-0.817,0.813c-1.853,0-3.707-0.022-5.563,0.014
			c-0.561,0.009-0.678-0.178-0.678-0.705c0.015-15.117,0.015-30.233,0.015-45.352c0-2.71,0.009-5.42-0.009-8.13
			c-0.006-0.475,0.105-0.651,0.619-0.643c1.942,0.031,3.887,0.026,5.832,0c0.468-0.005,0.615,0.128,0.608,0.603
			c-0.021,2.567-0.013,5.135-0.009,7.703c0,0.196,0.027,0.397,0.046,0.598c0.043,0.009,0.093,0.017,0.138,0.027
			c0.099-0.178,0.196-0.357,0.284-0.535c2.358-4.664,5.886-8.021,10.937-9.593c4.029-1.253,8.007-0.937,11.908,0.598
			c0.149,0.062,0.349,0.285,0.349,0.437C1951.461,197.049,1951.453,199.171,1951.447,201.294z"/>
	</g>
	<g display="inline">
		<path fill="#7E8083" d="M1653.841,154.061c-3.202,0-5.563,0.96-7.308,2.32c-4.383,3.438-4.846,9.475-4.846,9.475v84.993
			c1.885,0,3.485-0.233,4.846-0.66c9.291-2.835,7.308-13.961,7.308-13.961V154.061z"/>
		<path fill="#7E8083" d="M1689.346,237.61L1669,225.693l-4.645-2.907c-0.058-0.239-0.063-0.629,0.266-1.072l3.631-2.259
			l21.094-11.563c0,0,6.729-3.359,4.936-11.776c0,0-0.561-1.566-2.691-1.117c0,0-0.009,0-0.021,0.005l-30.928,17.259
			c0,0-0.072,0.05-0.171,0.125c-0.645,0.454-1.045,1.033-1.288,1.616c0,0.001-0.002,0.003-0.002,0.004
			c-0.074,0.174-0.137,0.348-0.185,0.519c-0.021,0.071-0.037,0.145-0.054,0.219c-0.221,0.963-0.103,1.769-0.103,1.769h0.002
			l0.021,10.552l-0.022,1.799c0.01,0.081,0.022,0.152,0.031,0.232v0.067l0.009-0.019c0.368,3.392,3.222,5.101,3.222,5.101
			l28.031,15.585c1.472,1.037,2.413,1.068,2.987,0.826c0.619-0.26,0.825-0.826,0.825-0.826
			C1697.421,242.765,1689.346,237.61,1689.346,237.61z"/>
	</g>
</g>
<g id="_x30_4" display="none">
	<g display="inline">
		<path fill="#E6E7E8" d="M1786.385,643.506c-0.49-2.06-0.855-4.154-1.468-6.175c-1.772-5.849-5.001-10.726-10.024-14.306
			c-5.271-3.758-11.187-5.226-17.604-4.881c-2.804,0.149-5.549,0.602-8.252,1.323c-6.22,1.658-11.448,4.845-15.37,10.025
			c-3.25,4.285-4.994,9.135-5.359,14.471c-0.195,2.845,0,5.688,0.5,8.511c0.689,3.924,1.817,7.705,3.875,11.137
			c5.086,8.497,12.69,12.826,22.518,13.32c3.084,0.151,6.137-0.268,9.156-0.937c5.344-1.181,10.133-3.451,14.104-7.279
			c4.525-4.36,6.958-9.688,7.383-16.01c-0.165,0.015-0.271,0.009-0.376,0.032c-2.364,0.413-4.729,0.842-7.097,1.248
			c-0.364,0.062-0.383,0.328-0.432,0.583c-1.074,5.796-4.325,9.995-9.502,12.702c-3.916,2.046-8.157,2.812-12.553,2.75
			c-5.397-0.079-10.021-1.977-13.701-5.979c-2.795-3.041-4.401-6.701-5.414-10.656c-0.175-0.688-0.166-0.694,0.539-0.814
			c2.35-0.405,4.693-0.807,7.043-1.217c4.779-0.844,9.56-1.698,14.338-2.541c3.33-0.59,6.66-1.163,9.989-1.747
			c3.57-0.63,7.146-1.263,10.718-1.896c2.207-0.389,4.41-0.785,6.611-1.178C1786.287,643.947,1786.465,643.854,1786.385,643.506z
			 M1773.875,640.189c-5.287,0.927-10.579,1.858-15.865,2.785c-5.164,0.905-10.326,1.807-15.492,2.711
			c-2.028,0.36-4.057,0.735-6.084,1.105c-0.657,0.116-0.692,0.079-0.729-0.585c-0.173-3.19,0.215-6.299,1.555-9.224
			c2.058-4.48,5.4-7.688,9.867-9.728c3.905-1.783,8.024-2.56,12.309-2.403c7.937,0.295,15.49,5.088,17.896,14.033
			c0.049,0.188,0.08,0.381,0.14,0.656C1776.216,639.771,1775.048,639.984,1773.875,640.189z"/>
		<path fill="#E6E7E8" d="M1900.854,653.941c-0.439,0.071-0.569,0.281-0.649,0.684c-1.2,6.117-4.712,10.443-10.32,13.039
			c-4.53,2.1-9.336,2.781-14.288,2.166c-4.328-0.539-8.007-2.434-11.002-5.621c-2.646-2.82-4.244-6.209-5.306-9.883
			c-0.146-0.508-0.271-1.021-0.428-1.614c16.628-2.934,33.185-5.853,49.786-8.782c-0.018-0.246-0.018-0.406-0.045-0.562
			c-0.477-2.772-1.096-5.511-2.129-8.14c-1.847-4.688-4.639-8.658-8.664-11.718c-5.412-4.109-11.561-5.729-18.291-5.362
			c-3.166,0.17-6.254,0.719-9.277,1.623c-5.821,1.748-10.703,4.882-14.363,9.789c-4.096,5.502-5.736,11.717-5.32,18.527
			c0.185,3.106,0.737,6.139,1.635,9.112c1.637,5.422,4.477,10.065,8.893,13.682c4.869,3.99,10.496,5.929,16.746,6.037
			c1.947,0.035,3.908-0.157,5.849-0.406c3.53-0.45,6.955-1.368,10.138-2.997c8.162-4.177,13.188-10.617,14.221-19.898
			c0.031-0.289,0.031-0.584,0.047-0.896c-0.219,0.014-0.362,0.004-0.5,0.031C1905.338,653.148,1903.095,653.563,1900.854,653.941z
			 M1858.658,646.805c-0.499,0.094-0.661-0.049-0.691-0.543c-0.339-5.074,0.986-9.625,4.245-13.565
			c3.254-3.929,7.537-6.101,12.433-7.183c3.678-0.815,7.393-1.048,11.074-0.103c7.244,1.854,11.881,6.442,13.936,13.632
			c0.022,0.085,0.029,0.175,0.046,0.264c0.004,0.053,0,0.104,0,0.245c-1.204,0.214-2.376,0.429-3.546,0.634
			c-4.801,0.842-9.598,1.686-14.399,2.523c-5.271,0.922-10.537,1.84-15.808,2.768
			C1863.518,645.904,1861.082,646.346,1858.658,646.805z"/>
		<path fill="#E6E7E8" d="M2012.487,674.908h-3.397c-1.818,0-3.637-0.014-5.456,0.01c-0.415,0.004-0.69-0.131-0.954-0.445
			c-4.813-5.733-9.638-11.457-14.467-17.182c-3.388-4.021-6.779-8.039-10.16-12.068c-0.285-0.334-0.445-0.369-0.799-0.084
			c-3.517,2.9-7.051,5.79-10.596,8.67c-0.29,0.236-0.4,0.481-0.4,0.856c0.014,6.509,0.008,13.019,0.008,19.524
			c0,0.719,0,0.719-0.734,0.719c-1.891,0-3.78-0.021-5.67,0.01c-0.536,0.009-0.696-0.125-0.696-0.678
			c0.019-10.396,0.013-20.793,0.013-31.189v-63.334c0-0.799,0-0.799,0.821-0.799h5.563c0.703,0,0.703,0,0.703,0.691v66.125
			c0.242-0.164,0.385-0.244,0.512-0.353c4.844-3.905,9.686-7.811,14.521-11.72c5.396-4.359,10.785-8.72,16.188-13.066
			c0.191-0.156,0.474-0.285,0.709-0.285c3.229-0.019,6.455-0.014,9.683-0.014c0.072,0,0.14,0.02,0.372,0.044
			c-8.288,6.696-16.482,13.313-24.748,19.985C1993.152,651.843,2002.771,663.322,2012.487,674.908z"/>
		<path fill="#E6E7E8" d="M1846.617,619.785c-0.348,0.779-0.669,1.502-0.999,2.229c-3.728,8.243-7.448,16.486-11.186,24.726
			c-4.183,9.228-8.377,18.45-12.555,27.684c-0.166,0.361-0.36,0.496-0.763,0.496c-2.067-0.022-4.137-0.026-6.2,0
			c-0.459,0.009-0.656-0.161-0.835-0.554c-3.619-8.057-7.252-16.106-10.887-24.157c-4.502-9.986-9.004-19.969-13.502-29.949
			c-0.06-0.129-0.103-0.259-0.181-0.459c0.222-0.018,0.386-0.04,0.554-0.04c2.336-0.005,4.674,0.004,7.004-0.01
			c0.396-0.005,0.599,0.12,0.759,0.495c5.147,12.067,10.308,24.137,15.469,36.198c1.49,3.486,2.983,6.974,4.478,10.459
			c0.088,0.205,0.184,0.406,0.33,0.735c0.142-0.269,0.23-0.411,0.299-0.562c3.344-7.753,6.684-15.501,10.024-23.248
			c3.375-7.834,6.759-15.662,10.129-23.499c0.179-0.423,0.396-0.589,0.865-0.585c2.21,0.027,4.422,0.01,6.635,0.015
			C1846.211,619.759,1846.368,619.771,1846.617,619.785z"/>
		<path fill="#E6E7E8" d="M1715.922,579.578c-0.01,15.775-0.01,31.559-0.01,47.335v47.233c0,0.762,0,0.762-0.748,0.762
			c-1.873,0-3.746-0.014-5.618,0.01c-0.45,0.004-0.623-0.15-0.58-0.589c0.015-0.122,0.005-0.251,0.005-0.374v-94.088
			c0-1.074-0.048-0.944,0.955-0.949c1.782-0.004,3.564,0.021,5.348-0.014C1715.805,578.896,1715.922,579.074,1715.922,579.578z"/>
		<path fill="#E6E7E8" d="M1951.447,626.294c0,0.03-0.026,0.062-0.049,0.125c-0.922-0.219-1.836-0.485-2.772-0.651
			c-4.619-0.819-9.026-0.275-13.035,2.297c-3.071,1.975-5.038,4.877-6.554,8.127c-0.888,1.902-1.302,3.843-1.288,5.978
			c0.075,10.644,0.035,21.288,0.035,31.929c0,0.813-0.004,0.813-0.817,0.813c-1.853,0-3.707-0.021-5.563,0.014
			c-0.561,0.01-0.678-0.178-0.678-0.705c0.015-15.115,0.015-30.234,0.015-45.352c0-2.71,0.009-5.42-0.009-8.131
			c-0.006-0.474,0.105-0.65,0.619-0.643c1.942,0.03,3.887,0.026,5.832,0c0.468-0.005,0.615,0.128,0.608,0.603
			c-0.021,2.567-0.013,5.136-0.009,7.702c0,0.196,0.027,0.397,0.046,0.599c0.043,0.009,0.093,0.017,0.138,0.026
			c0.099-0.179,0.196-0.357,0.284-0.535c2.358-4.663,5.886-8.021,10.937-9.594c4.029-1.252,8.007-0.937,11.908,0.599
			c0.149,0.062,0.349,0.284,0.349,0.437C1951.461,622.049,1951.453,624.172,1951.447,626.294z"/>
	</g>
	<g display="inline">
		<path fill="#E6E7E8" d="M1653.841,579.061c-3.202,0-5.563,0.961-7.308,2.32c-4.383,3.438-4.846,9.475-4.846,9.475v84.994
			c1.885,0,3.485-0.233,4.846-0.66c9.291-2.836,7.308-13.961,7.308-13.961V579.061z"/>
		<path fill="#E6E7E8" d="M1689.346,662.609L1669,650.693l-4.645-2.906c-0.058-0.24-0.063-0.63,0.266-1.072l3.631-2.26
			l21.094-11.563c0,0,6.729-3.359,4.936-11.776c0,0-0.561-1.565-2.691-1.117c0,0-0.009,0-0.021,0.005l-30.928,17.259
			c0,0-0.072,0.05-0.171,0.125c-0.645,0.454-1.045,1.033-1.288,1.616c0,0.002-0.002,0.003-0.002,0.004
			c-0.074,0.176-0.137,0.35-0.185,0.521c-0.021,0.071-0.037,0.145-0.054,0.219c-0.221,0.964-0.103,1.771-0.103,1.771h0.002
			l0.021,10.552l-0.022,1.799c0.01,0.081,0.022,0.151,0.031,0.233v0.066l0.009-0.02c0.368,3.394,3.222,5.103,3.222,5.103
			l28.031,15.585c1.472,1.036,2.413,1.068,2.987,0.825c0.619-0.26,0.825-0.825,0.825-0.825
			C1697.421,667.766,1689.346,662.609,1689.346,662.609z"/>
	</g>
</g>
<g id="_x30_1_copy">
	<g>
		<path fill="#7E8082" d="M1311.771,490.176c-2.142-8.975-3.732-18.104-6.397-26.912c-7.729-25.492-21.798-46.751-43.699-62.355
			c-22.973-16.38-48.756-22.771-76.735-21.275c-12.221,0.658-24.187,2.625-35.969,5.771c-27.105,7.228-49.9,21.118-66.996,43.7
			c-14.166,18.677-21.769,39.816-23.36,63.075c-0.854,12.399,0,24.796,2.175,37.095c3.01,17.102,7.926,33.584,16.891,48.543
			c22.168,37.035,55.32,55.906,98.15,58.062c13.442,0.662,26.749-1.164,39.911-4.08c23.292-5.146,44.167-15.041,61.479-31.729
			c19.726-19.008,30.328-42.229,32.18-69.781c-0.719,0.058-1.184,0.036-1.639,0.139c-10.311,1.803-20.61,3.669-30.934,5.439
			c-1.588,0.269-1.669,1.435-1.882,2.544c-4.683,25.261-18.853,43.563-41.413,55.364c-17.068,8.92-35.561,12.257-54.715,11.985
			c-23.531-0.347-43.686-8.607-59.721-26.057c-12.184-13.253-19.189-29.207-23.6-46.447c-0.762-3.005-0.724-3.028,2.351-3.554
			c10.237-1.768,20.458-3.518,30.698-5.303c20.834-3.676,41.666-7.405,62.492-11.075c14.521-2.566,29.035-5.071,43.547-7.617
			c15.563-2.741,31.149-5.504,46.717-8.26c9.615-1.694,19.219-3.418,28.816-5.13
			C1311.346,492.102,1312.121,491.693,1311.771,490.176z M1257.244,475.723c-23.046,4.039-46.112,8.103-69.154,12.145
			c-22.509,3.943-45.01,7.871-67.527,11.813c-8.846,1.575-17.683,3.208-26.52,4.821c-2.869,0.506-3.021,0.348-3.176-2.548
			c-0.754-13.913,0.937-27.456,6.775-40.204c8.965-19.531,23.541-33.504,43.01-42.398c17.022-7.772,34.978-11.154,53.651-10.476
			c34.589,1.284,67.52,22.173,77.999,61.17c0.213,0.815,0.35,1.653,0.604,2.858C1267.447,473.896,1262.355,474.828,1257.244,475.723
			z"/>
		<path fill="#7E8082" d="M1810.717,535.667c-1.916,0.312-2.482,1.228-2.831,2.978c-5.23,26.662-20.538,45.524-44.983,56.838
			c-19.747,9.148-40.693,12.123-62.283,9.44c-18.861-2.35-34.896-10.61-47.956-24.504c-11.535-12.298-18.495-27.065-23.122-43.079
			c-0.639-2.214-1.184-4.45-1.864-7.034c72.479-12.786,144.646-25.513,217.013-38.282c-0.076-1.067-0.076-1.769-0.194-2.444
			c-2.077-12.088-4.776-24.019-9.284-35.482c-8.045-20.425-20.215-37.739-37.761-51.069c-23.595-17.916-50.392-24.968-79.731-23.376
			c-13.796,0.739-27.26,3.131-40.438,7.075c-25.374,7.617-46.652,21.279-62.606,42.672c-17.853,23.979-25.008,51.068-23.194,80.758
			c0.805,13.543,3.219,26.758,7.125,39.719c7.136,23.631,19.514,43.878,38.763,59.634c21.224,17.396,45.75,25.845,72.993,26.314
			c8.486,0.155,17.035-0.684,25.492-1.77c15.389-1.962,30.315-5.968,44.188-13.063c35.577-18.203,57.478-46.282,61.979-86.74
			c0.142-1.26,0.142-2.545,0.205-3.905c-0.953,0.059-1.58,0.021-2.18,0.137C1830.268,532.21,1820.489,534.016,1810.717,535.667z
			 M1626.799,504.559c-2.175,0.407-2.882-0.215-3.014-2.369c-1.479-22.114,4.299-41.955,18.504-59.133
			c14.183-17.123,32.854-26.585,54.191-31.306c16.029-3.554,32.219-4.565,48.271-0.445c31.576,8.082,51.786,28.079,60.742,59.421
			c0.099,0.368,0.128,0.76,0.196,1.146c0.017,0.232,0,0.447,0,1.068c-5.25,0.935-10.356,1.863-15.453,2.761
			c-20.926,3.672-41.834,7.345-62.769,10.999c-22.969,4.021-45.93,8.023-68.897,12.063
			C1647.98,500.632,1637.364,502.559,1626.799,504.559z"/>
		<path fill="#7E8082" d="M2297.313,627.055h-14.809c-7.931,0-15.854-0.06-23.782,0.041c-1.81,0.021-3.014-0.565-4.159-1.942
			c-20.984-24.988-42.009-49.939-63.058-74.891c-14.767-17.528-29.555-35.038-44.287-52.604c-1.242-1.456-1.94-1.611-3.481-0.366
			c-15.327,12.646-30.732,25.24-46.185,37.791c-1.265,1.032-1.745,2.102-1.745,3.734c0.061,28.371,0.033,56.742,0.033,85.107
			c0,3.128,0,3.128-3.205,3.128c-8.236,0-16.479-0.096-24.715,0.041c-2.336,0.04-3.034-0.545-3.034-2.954
			c0.077-45.313,0.056-90.633,0.056-135.944V212.131c0-3.48,0-3.48,3.58-3.48h24.25c3.068,0,3.068,0,3.068,3.014v288.228
			c1.056-0.716,1.674-1.064,2.23-1.533c21.108-17.021,42.213-34.047,63.292-51.084c23.519-19.006,47.011-38.01,70.563-56.958
			c0.834-0.679,2.061-1.245,3.091-1.245c14.067-0.075,28.132-0.053,42.2-0.053c0.313,0,0.604,0.079,1.622,0.191
			c-36.127,29.188-71.845,58.024-107.873,87.112C2213.035,526.518,2254.967,576.552,2297.313,627.055z"/>
		<path fill="#7E8082" d="M1574.314,386.786c-1.517,3.395-2.916,6.545-4.354,9.711c-16.244,35.931-32.466,71.858-48.752,107.771
			c-18.231,40.222-36.515,80.427-54.724,120.668c-0.725,1.578-1.57,2.16-3.32,2.16c-9.016-0.101-18.031-0.115-27.029,0
			c-2.001,0.04-2.859-0.699-3.64-2.412c-15.775-35.109-31.61-70.205-47.449-105.299c-19.623-43.522-39.251-87.035-58.853-130.543
			c-0.26-0.562-0.447-1.126-0.787-2.001c0.962-0.076,1.682-0.172,2.412-0.172c10.184-0.021,20.369,0.017,30.528-0.043
			c1.729-0.019,2.605,0.526,3.304,2.16c22.441,52.6,44.93,105.204,67.427,157.784c6.495,15.193,13.004,30.393,19.517,45.587
			c0.379,0.896,0.796,1.769,1.436,3.207c0.617-1.169,1.009-1.79,1.303-2.45c14.574-33.791,29.132-67.563,43.697-101.334
			c14.712-34.145,29.462-68.266,44.15-102.425c0.779-1.845,1.729-2.565,3.771-2.548c9.633,0.117,19.273,0.041,28.92,0.062
			C1572.543,386.669,1573.229,386.724,1574.314,386.786z"/>
		<path fill="#7E8082" d="M1004.637,211.526c-0.041,68.769-0.041,137.558-0.041,206.328v205.881c0,3.319,0,3.319-3.262,3.319
			c-8.165,0-16.329-0.06-24.488,0.041c-1.963,0.021-2.717-0.657-2.529-2.563c0.061-0.53,0.021-1.092,0.021-1.633V212.791
			c0-4.685-0.209-4.119,4.163-4.14c7.769-0.019,15.541,0.098,23.31-0.058C1004.126,208.555,1004.637,209.33,1004.637,211.526z"/>
		<path fill="#7E8082" d="M2031.25,415.154c0,0.134-0.115,0.268-0.209,0.545c-4.021-0.954-8.007-2.12-12.089-2.837
			c-20.134-3.578-39.349-1.207-56.817,10.005c-13.392,8.607-21.961,21.26-28.566,35.428c-3.869,8.293-5.674,16.746-5.614,26.051
			c0.328,46.389,0.153,92.791,0.153,139.172c0,3.537-0.018,3.537-3.563,3.537c-8.075,0-16.158-0.096-24.246,0.063
			c-2.442,0.038-2.95-0.777-2.95-3.074c0.061-65.891,0.061-131.786,0.061-197.681c0-11.813,0.039-23.625-0.038-35.439
			c-0.021-2.063,0.464-2.839,2.699-2.799c8.471,0.134,16.94,0.115,25.42,0c2.039-0.021,2.683,0.56,2.655,2.622
			c-0.094,11.194-0.055,22.384-0.037,33.577c0,0.854,0.119,1.731,0.199,2.604c0.188,0.038,0.404,0.075,0.602,0.117
			c0.425-0.774,0.855-1.558,1.238-2.333c10.279-20.328,25.654-34.956,47.666-41.815c17.566-5.461,34.899-4.083,51.906,2.605
			c0.654,0.268,1.52,1.241,1.52,1.903C2031.311,396.653,2031.275,405.902,2031.25,415.154z"/>
	</g>
	<g>
		<path fill="#01BECC" d="M734.037,209.274c-13.958,0-24.246,4.187-31.854,10.112c-19.104,14.979-21.121,41.3-21.121,41.3v370.47
			c8.215,0,15.195-1.019,21.121-2.875c40.498-12.359,31.854-60.855,31.854-60.855V209.274z"/>
		<path fill="#01BECC" d="M888.796,573.449l-88.683-51.942l-20.245-12.67c-0.247-1.043-0.269-2.743,1.158-4.672l15.825-9.849
			l91.944-50.402c0,0,29.333-14.643,21.509-51.329c0,0-2.438-6.826-11.73-4.87c0,0-0.038,0-0.098,0.021l-134.81,75.228
			c0,0-0.313,0.217-0.74,0.545c-2.812,1.979-4.553,4.504-5.619,7.045c-0.002,0.007-0.006,0.013-0.008,0.021
			c-0.319,0.76-0.592,1.518-0.798,2.262c-0.091,0.311-0.162,0.631-0.236,0.956c-0.96,4.199-0.441,7.711-0.441,7.711h0.008
			l0.089,45.993l-0.099,7.841c0.039,0.351,0.099,0.664,0.137,1.019v0.293l0.039-0.08c1.604,14.785,14.042,22.233,14.042,22.233
			l122.179,67.935c6.415,4.519,10.521,4.656,13.025,3.6c2.699-1.135,3.597-3.6,3.597-3.6
			C923.994,595.918,888.796,573.449,888.796,573.449z"/>
	</g>
</g>
</svg>
